<?xml version="1.0" encoding="UTF-8"?>
<svg xmlns="http://www.w3.org/2000/svg" viewBox="0 0 201.18 182.13">
  <defs>
    <style>
      .cls-1 {
        stroke-linecap: round;
        stroke-width: 3px;
      }

      .cls-1, .cls-2, .cls-3, .cls-4, .cls-5 {
        stroke: #231f20;
        stroke-miterlimit: 10;
      }

      .cls-2 {
        stroke-width: 1.2px;
      }

      .cls-4 {
        fill: #231f20;
      }

      .cls-5 {
        stroke-width: 1.25px;
      }
    </style>
  </defs>
  <g id="Layer_2">
    <path class="cls-4" d="M60.79,88.57s1.39,13.97-13.1,21.93c-14.49,7.96,40.81-3.93,13.1-21.93Z"/>
  </g>
  <g id="Layer_8">
    <path class="cls-3" d="M18.02,59.51c-.49-2.33-.27-4.76.59-6.98,4.34-11.35,22.33-48.43,69.89-40.78,49.06,7.88,12.17,28.81,2.26,33.88-1.44.74-17.47,2.47-19.08,2.61l-15.55,1.38c-6.97.62-12.11,6.78-11.48,13.75h0c.51,5.56,4.6,10.14,10.08,11.25l43.94,8.94c3.92.8,7.22,3.4,8.93,7.02,4.2,8.9,10.96,32.56-3.1,31.17-90.29-8.94-75.6,25.62-89.15,32.9-7.01,3.77-14.85-16.25-14.85-24.21v-5.72c0-6.72,5.25-12.26,11.96-12.63l39.59-2.17c11.6-.64,11.55-14.13,2.45-21.35-10.11-8.02-34.14-18.04-36.48-29.06Z"/>
  </g>
  <g id="Layer_7">
    <path class="cls-3" d="M120.35.5c-9.24,0-.66,31.43-.66,40.67l5.17,34.39-8,33.41c0,9.53,10.81,10.23,20.33,9.84s33.87,20.84,33.63,29.34c-.88,31.94,9.91,5.01,20.2-6.64,5.24-5.93,9.67-17.12,9.67-25.03v-.72c0-9.08-7.24-16.51-16.32-16.73l-17.55-.43c-5.25-.13-10.17-2.69-13.19-6.98-4.63-6.55-9.42-18.16-5.93-36.18,3.58-18.5-1.91-39.86-6-44.72C134.64,2.32,120.35.5,120.35.5Z"/>
  </g>
  <g id="Layer_6">
    <path class="cls-5" d="M61.14,137.86c-3.11,1.01-2.65,5.87-5.93,5.87s-5.93-2.63-5.93-5.87,2.65-5.87,5.93-5.87,15.21,2.86,5.93,5.87Z"/>
  </g>
  <g id="Layer_5">
    <path class="cls-3" d="M145.4,137.86c-3.15.75-2.63,5.87-5.87,5.87s-5.87-2.63-5.87-5.87,2.63-5.87,5.87-5.87,17.11,3.19,5.87,5.87Z"/>
  </g>
  <g id="Layer_4">
    <path class="cls-2" d="M95.58,86.97c-8.2,17.13-7,24.12-7.15,31.23-.19,8.67,9.88,19.66,1.65,24.28-11,6.17,8.21,15.58,12.6,16.74.76.2,1.54.13,2.28-.19l6.51-2.87c2.99-1.32,3.78-19.14,1.49-44.08l-17.38-25.1Z"/>
  </g>
  <g id="Layer_3">
    <path class="cls-1" d="M123.39,170.43c-12.15,22.02-38.62,2.32-34.55-3.06,3.5-4.63,30.1-1.51,30.1-1.51,2.67-.43,4.95,1.92,4.45,4.57h0Z"/>
  </g>
</svg>